<svg id="visual" viewBox="0 0 900 600" width="900" height="600" xmlns="http://www.w3.org/2000/svg" xmlns:xlink="http://www.w3.org/1999/xlink" version="1.1"><rect x="0" y="0" width="900" height="600" fill="#000000"></rect><defs><linearGradient id="grad1_0" x1="33.3%" y1="0%" x2="100%" y2="100%"><stop offset="20%" stop-color="#000000" stop-opacity="1"></stop><stop offset="80%" stop-color="#000000" stop-opacity="1"></stop></linearGradient></defs><defs><linearGradient id="grad2_0" x1="0%" y1="0%" x2="66.7%" y2="100%"><stop offset="20%" stop-color="#000000" stop-opacity="1"></stop><stop offset="80%" stop-color="#000000" stop-opacity="1"></stop></linearGradient></defs><g transform="translate(900, 0)"><path d="M0 297.5C-38.9 267.5 -77.9 237.6 -125 216.5C-172.1 195.5 -227.5 183.3 -257.6 148.7C-287.7 114.1 -292.6 57.1 -297.5 0L0 0Z" fill="#df6400"></path></g><g transform="translate(0, 600)"><path d="M0 -297.5C41.1 -271.2 82.1 -244.9 129 -223.4C175.9 -201.9 228.6 -185.2 257.6 -148.7C286.7 -112.3 292.1 -56.1 297.5 0L0 0Z" fill="#df6400"></path></g></svg>