<svg id="visual" viewBox="0 0 500 500" width="500" height="500" xmlns="http://www.w3.org/2000/svg" xmlns:xlink="http://www.w3.org/1999/xlink" version="1.1"><rect x="0" y="0" width="500" height="500" fill="#000000"></rect><defs><linearGradient id="grad1_0" x1="0%" y1="0%" x2="100%" y2="100%"><stop offset="30%" stop-color="#000000" stop-opacity="1"></stop><stop offset="70%" stop-color="#000000" stop-opacity="1"></stop></linearGradient></defs><defs><linearGradient id="grad2_0" x1="0%" y1="0%" x2="100%" y2="100%"><stop offset="30%" stop-color="#000000" stop-opacity="1"></stop><stop offset="70%" stop-color="#000000" stop-opacity="1"></stop></linearGradient></defs><g transform="translate(500, 0)"><path d="M0 300.5C-46.1 282 -92.2 263.5 -139 240.8C-185.8 218 -233.2 191.1 -260.3 150.3C-287.3 109.4 -293.9 54.7 -300.5 0L0 0Z" fill="#df6400"></path></g><g transform="translate(0, 500)"><path d="M0 -300.5C49 -287.1 98.1 -273.6 144.5 -250.3C190.9 -226.9 234.7 -193.6 260.3 -150.3C285.8 -106.9 293.2 -53.4 300.5 0L0 0Z" fill="#df6400"></path></g></svg>