<svg id="visual" viewBox="0 0 500 500" width="500" height="500" xmlns="http://www.w3.org/2000/svg" xmlns:xlink="http://www.w3.org/1999/xlink" version="1.1"><rect width="500" height="500" fill="#000000"></rect><g><g transform="translate(173 427)"><path d="M34.9 -11.6C39.1 1.5 32 17.9 20 26.4C7.9 34.9 -9.1 35.4 -20.2 27.5C-31.3 19.5 -36.5 3 -32.2 -10.3C-27.8 -23.6 -13.9 -33.6 0.7 -33.9C15.4 -34.1 30.8 -24.6 34.9 -11.6Z" stroke="#F7760E" fill="none" stroke-width="20"></path></g><g transform="translate(459 414)"><path d="M19.7 -7.2C22.3 1.5 18.8 11.3 11.8 16.5C4.8 21.6 -5.7 22 -13.1 16.9C-20.5 11.8 -24.7 1.2 -22 -7.6C-19.3 -16.5 -9.6 -23.6 -0.5 -23.4C8.6 -23.3 17.2 -15.8 19.7 -7.2Z" stroke="#F7760E" fill="none" stroke-width="20"></path></g><g transform="translate(151 47)"><path d="M20.5 -7.6C23 1 19 10.9 11.6 16.3C4.2 21.8 -6.7 23 -13.4 18.2C-20.1 13.4 -22.7 2.6 -19.7 -6.7C-16.8 -15.9 -8.4 -23.6 0.3 -23.7C9 -23.8 18 -16.3 20.5 -7.6Z" stroke="#F7760E" fill="none" stroke-width="20"></path></g><g transform="translate(373 172)"><path d="M26.4 -9.2C29.7 1.6 24.8 14.5 16 20.6C7.1 26.7 -5.7 26 -14.5 19.7C-23.4 13.3 -28.4 1.2 -25.3 -9.2C-22.3 -19.7 -11.1 -28.5 0.2 -28.6C11.5 -28.6 23.1 -19.9 26.4 -9.2Z" stroke="#F7760E" fill="none" stroke-width="20"></path></g><g transform="translate(331 396)"><path d="M8.6 -2.8C9.9 1.1 8.8 5.8 5.9 7.9C3 10 -1.7 9.4 -4.9 7.1C-8 4.7 -9.5 0.6 -8.4 -3.1C-7.4 -6.7 -3.7 -9.9 0 -9.9C3.7 -9.9 7.3 -6.7 8.6 -2.8Z" stroke="#F7760E" fill="none" stroke-width="20"></path></g><g transform="translate(31 131)"><path d="M21.1 -6.5C24.1 2.6 21.3 14 13.9 19.4C6.6 24.8 -5.3 24.2 -13 18.5C-20.8 12.7 -24.4 1.8 -21.6 -7.1C-18.7 -15.9 -9.4 -22.7 -0.2 -22.6C9 -22.6 18 -15.7 21.1 -6.5Z" stroke="#F7760E" fill="none" stroke-width="20"></path></g><g transform="translate(402 313)"><path d="M8.4 -2.4C9.5 0.8 8.2 5.1 5.3 7.1C2.5 9.1 -1.8 8.7 -4.5 6.7C-7.2 4.6 -8.2 0.8 -7.2 -2.2C-6.2 -5.2 -3.1 -7.3 0.3 -7.4C3.6 -7.5 7.3 -5.5 8.4 -2.4Z" stroke="#F7760E" fill="none" stroke-width="20"></path></g><g transform="translate(490 146)"><path d="M21.2 -7C23.5 0.2 18.7 9.6 11.1 15C3.5 20.5 -6.8 22.1 -13.8 17.4C-20.7 12.7 -24.2 1.9 -21.4 -6.1C-18.5 -14 -9.3 -18.9 0.1 -18.9C9.5 -19 18.9 -14.1 21.2 -7Z" stroke="#F7760E" fill="none" stroke-width="20"></path></g><g transform="translate(441 58)"><path d="M12.1 -3.8C13.7 1.2 11.9 7.5 7.7 10.5C3.6 13.4 -2.8 13.1 -7.3 9.9C-11.8 6.7 -14.4 0.6 -12.8 -4.3C-11.3 -9.2 -5.6 -12.9 -0.2 -12.8C5.2 -12.7 10.4 -8.9 12.1 -3.8Z" stroke="#F7760E" fill="none" stroke-width="20"></path></g><g transform="translate(87 318)"><path d="M18.6 -6.4C21 1.2 17.6 10.4 11.1 15C4.6 19.7 -5 19.8 -11 15.4C-17.1 10.9 -19.6 1.9 -17.2 -5.9C-14.8 -13.6 -7.4 -20 0.4 -20.1C8.1 -20.2 16.3 -14.1 18.6 -6.4Z" stroke="#F7760E" fill="none" stroke-width="20"></path></g><g transform="translate(263 487)"><path d="M12.9 -4.4C14.5 0.7 12.1 7 7.8 10C3.4 13 -2.8 12.7 -7.1 9.7C-11.4 6.6 -13.8 0.6 -12.3 -4.4C-10.8 -9.4 -5.4 -13.5 0.1 -13.6C5.7 -13.6 11.3 -9.6 12.9 -4.4Z" stroke="#F7760E" fill="none" stroke-width="20"></path></g><g transform="translate(203 201)"><path d="M10 -2.9C11.4 1.1 9.9 6.4 6.3 9C2.8 11.7 -2.9 11.8 -6.7 9C-10.5 6.3 -12.3 0.9 -10.9 -3.2C-9.5 -7.2 -4.7 -9.9 -0.2 -9.8C4.3 -9.7 8.6 -6.9 10 -2.9Z" stroke="#F7760E" fill="none" stroke-width="20"></path></g><g transform="translate(331 74)"><path d="M26.1 -9.3C29.4 1.5 24.4 14.1 15.4 20.4C6.5 26.8 -6.5 26.7 -16 20.2C-25.6 13.7 -31.7 0.7 -28.5 -10.1C-25.3 -20.8 -12.6 -29.3 -0.6 -29.1C11.4 -28.9 22.9 -20 26.1 -9.3Z" stroke="#F7760E" fill="none" stroke-width="20"></path></g><g transform="translate(36 21)"><path d="M21.2 -7.4C23.9 1.5 20.1 12 12.9 17C5.7 22 -4.8 21.6 -11.6 16.6C-18.4 11.5 -21.4 1.8 -18.9 -6.9C-16.3 -15.5 -8.2 -23.1 0.5 -23.2C9.2 -23.4 18.5 -16.2 21.2 -7.4Z" stroke="#F7760E" fill="none" stroke-width="20"></path></g><g transform="translate(15 454)"><path d="M18.1 -6C20.6 2 18 11.6 11.6 16.4C5.1 21.2 -5.2 21.3 -12.3 16.3C-19.3 11.3 -23.1 1.3 -20.5 -6.8C-17.9 -14.8 -9 -20.9 -0.6 -20.7C7.7 -20.5 15.5 -14.1 18.1 -6Z" stroke="#F7760E" fill="none" stroke-width="20"></path></g><g transform="translate(297 263)"><path d="M27 -9.6C31.2 3.9 27.9 19 18.7 25.6C9.5 32.3 -5.7 30.5 -15.5 23C-25.4 15.5 -29.8 2.2 -26.3 -10.4C-22.8 -23 -11.4 -34.9 0 -34.9C11.5 -34.9 22.9 -23 27 -9.6Z" stroke="#F7760E" fill="none" stroke-width="20"></path></g><g transform="translate(23 240)"><path d="M8.9 -3C10.2 1.1 9 6 5.8 8.4C2.6 10.8 -2.6 10.8 -6.2 8.2C-9.8 5.7 -11.7 0.6 -10.4 -3.5C-9.1 -7.7 -4.5 -11 -0.4 -10.9C3.8 -10.7 7.6 -7.2 8.9 -3Z" stroke="#F7760E" fill="none" stroke-width="20"></path></g><g transform="translate(243 4)"><path d="M10.9 -3.5C12.4 1 10.6 6.6 6.7 9.4C2.9 12.3 -3.1 12.4 -6.7 9.6C-10.3 6.9 -11.6 1.4 -10.1 -3.2C-8.6 -7.8 -4.3 -11.3 0.2 -11.4C4.7 -11.4 9.4 -8 10.9 -3.5Z" stroke="#F7760E" fill="none" stroke-width="20"></path></g><g transform="translate(499 278)"><path d="M8.3 -3.1C9.4 0.7 8.1 5 4.9 7.4C1.7 9.9 -3.2 10.6 -6 8.5C-8.8 6.4 -9.5 1.5 -8.1 -2.6C-6.8 -6.8 -3.4 -10.3 0.1 -10.3C3.6 -10.3 7.2 -6.9 8.3 -3.1Z" stroke="#F7760E" fill="none" stroke-width="20"></path></g><g transform="translate(229 341)"><path d="M20.4 -6.3C23.6 3.3 21.5 15 14.6 20C7.6 25.1 -4.1 23.5 -12.1 17.5C-20.1 11.5 -24.4 1.1 -21.8 -7.7C-19.1 -16.5 -9.6 -23.7 -0.5 -23.6C8.6 -23.4 17.1 -15.9 20.4 -6.3Z" stroke="#F7760E" fill="none" stroke-width="20"></path></g><g transform="translate(373 499)"><path d="M13.4 -4.2C15.3 1.4 13.2 8.4 8.5 11.9C3.7 15.5 -3.8 15.5 -8.3 12.1C-12.7 8.7 -14.1 1.8 -12.2 -3.8C-10.3 -9.4 -5.2 -13.9 0.3 -14C5.8 -14.1 11.6 -9.9 13.4 -4.2Z" stroke="#F7760E" fill="none" stroke-width="20"></path></g></g></svg>