<svg id="visual" viewBox="0 0 900 600" width="900" height="600" xmlns="http://www.w3.org/2000/svg" xmlns:xlink="http://www.w3.org/1999/xlink" version="1.1"><rect x="0" y="0" width="900" height="600" fill="#000000"></rect><defs><linearGradient id="grad1_0" x1="33.3%" y1="0%" x2="100%" y2="100%"><stop offset="20%" stop-color="#000000" stop-opacity="1"></stop><stop offset="80%" stop-color="#000000" stop-opacity="1"></stop></linearGradient></defs><defs><linearGradient id="grad2_0" x1="0%" y1="0%" x2="66.7%" y2="100%"><stop offset="20%" stop-color="#000000" stop-opacity="1"></stop><stop offset="80%" stop-color="#000000" stop-opacity="1"></stop></linearGradient></defs><g transform="translate(900, 0)"><path d="M0 378.6C-54.8 349.6 -109.7 320.6 -169 292.7C-228.3 264.8 -292.2 237.9 -327.9 189.3C-363.5 140.7 -371.1 70.3 -378.6 0L0 0Z" fill="#df6400"></path></g><g transform="translate(0, 600)"><path d="M0 -378.6C70.8 -371.3 141.6 -364.1 189.3 -327.9C237 -291.6 261.6 -226.5 289.3 -167C316.9 -107.5 347.8 -53.8 378.6 0L0 0Z" fill="#df6400"></path></g></svg>