<svg id="visual" viewBox="0 0 500 500" width="500" height="500" xmlns="http://www.w3.org/2000/svg" xmlns:xlink="http://www.w3.org/1999/xlink" version="1.1"><rect x="0" y="0" width="500" height="500" fill="#000000"></rect><path d="M0 370L71 326L143 358L214 340L286 371L357 315L429 323L500 316L500 501L429 501L357 501L286 501L214 501L143 501L71 501L0 501Z" fill="#f5730a"></path><path d="M0 379L71 389L143 358L214 384L286 400L357 385L429 376L500 365L500 501L429 501L357 501L286 501L214 501L143 501L71 501L0 501Z" fill="#da5b09"></path><path d="M0 380L71 373L143 388L214 386L286 418L357 423L429 377L500 408L500 501L429 501L357 501L286 501L214 501L143 501L71 501L0 501Z" fill="#be4407"></path><path d="M0 426L71 440L143 410L214 410L286 424L357 430L429 443L500 447L500 501L429 501L357 501L286 501L214 501L143 501L71 501L0 501Z" fill="#a32d04"></path><path d="M0 453L71 455L143 438L214 442L286 439L357 441L429 458L500 472L500 501L429 501L357 501L286 501L214 501L143 501L71 501L0 501Z" fill="#871400"></path></svg>