<svg id="visual" viewBox="0 0 500 500" width="500" height="500" xmlns="http://www.w3.org/2000/svg" xmlns:xlink="http://www.w3.org/1999/xlink" version="1.1"><g stroke-width="1" stroke-linejoin="bevel"><path d="M246.2 241.8L260.8 250.8L265.8 216.2Z" fill="#d93202" stroke="#d93202"></path><path d="M265.8 216.2L241.8 197.7L246.2 241.8Z" fill="#ec3f01" stroke="#ec3f01"></path><path d="M241.8 197.7L224.2 193.2L246.2 241.8Z" fill="#d93202" stroke="#d93202"></path><path d="M241.8 197.7L226.2 190.7L224.2 193.2Z" fill="#ff4c00" stroke="#ff4c00"></path><path d="M343.3 244.2L305.3 179.7L265.8 216.2Z" fill="#b31402" stroke="#b31402"></path><path d="M265.8 216.2L305.3 179.7L241.8 197.7Z" fill="#c62402" stroke="#c62402"></path><path d="M241.8 197.7L247.8 139.1L226.2 190.7Z" fill="#550000" stroke="#550000"></path><path d="M144.1 162.7L185.7 232.2L224.2 193.2Z" fill="#b31402" stroke="#b31402"></path><path d="M224.2 193.2L185.7 232.2L246.2 241.8Z" fill="#ec3f01" stroke="#ec3f01"></path><path d="M246.2 241.8L245.2 341.3L260.8 250.8Z" fill="#000000" stroke="#000000"></path><path d="M185.7 232.2L187.7 252.8L246.2 241.8Z" fill="#ec3f01" stroke="#ec3f01"></path><path d="M260.8 250.8L343.3 244.2L265.8 216.2Z" fill="#780000" stroke="#780000"></path><path d="M356.9 302.3L351.3 244.8L343.3 244.2Z" fill="#550000" stroke="#550000"></path><path d="M343.3 244.2L380.9 229.2L305.3 179.7Z" fill="#8c0000" stroke="#8c0000"></path><path d="M305.3 179.7L247.8 139.1L241.8 197.7Z" fill="#ec3f01" stroke="#ec3f01"></path><path d="M226.2 190.7L144.1 162.7L224.2 193.2Z" fill="#000000" stroke="#000000"></path><path d="M351.3 244.8L380.9 229.2L343.3 244.2Z" fill="#ec3f01" stroke="#ec3f01"></path><path d="M187.7 252.8L245.2 341.3L246.2 241.8Z" fill="#660000" stroke="#660000"></path><path d="M260.8 250.8L356.9 302.3L343.3 244.2Z" fill="#d93202" stroke="#d93202"></path><path d="M351.3 244.8L356.9 302.3L365.9 243.8Z" fill="#8c0000" stroke="#8c0000"></path><path d="M315.3 354.3L356.9 302.3L260.8 250.8Z" fill="#ec3f01" stroke="#ec3f01"></path><path d="M305.3 179.7L261.2 114.1L247.8 139.1Z" fill="#550000" stroke="#550000"></path><path d="M247.8 139.1L144.1 162.7L226.2 190.7Z" fill="#ff4c00" stroke="#ff4c00"></path><path d="M370.3 76.1L261.2 114.1L305.3 179.7Z" fill="#c62402" stroke="#c62402"></path><path d="M470.4 262.8L380.9 229.2L365.9 243.8Z" fill="#ff4c00" stroke="#ff4c00"></path><path d="M365.9 243.8L380.9 229.2L351.3 244.8Z" fill="#ec3f01" stroke="#ec3f01"></path><path d="M245.2 341.3L315.3 354.3L260.8 250.8Z" fill="#ec3f01" stroke="#ec3f01"></path><path d="M134.1 299.3L175.7 335.3L187.7 252.8Z" fill="#b31402" stroke="#b31402"></path><path d="M187.7 252.8L175.7 335.3L245.2 341.3Z" fill="#8c0000" stroke="#8c0000"></path><path d="M245.2 341.3L241.8 372.3L315.3 354.3Z" fill="#a00000" stroke="#a00000"></path><path d="M140.7 150.7L144.1 162.7L247.8 139.1Z" fill="#a00000" stroke="#a00000"></path><path d="M185.7 232.2L134.1 299.3L187.7 252.8Z" fill="#8c0000" stroke="#8c0000"></path><path d="M175.7 335.3L241.8 372.3L245.2 341.3Z" fill="#d93202" stroke="#d93202"></path><path d="M87.1 229.2L134.1 299.3L185.7 232.2Z" fill="#d93202" stroke="#d93202"></path><path d="M165.7 73.1L140.7 150.7L247.8 139.1Z" fill="#ff4c00" stroke="#ff4c00"></path><path d="M70.6 311.3L120.1 312.8L134.1 299.3Z" fill="#660000" stroke="#660000"></path><path d="M380.9 229.2L390.9 147.7L305.3 179.7Z" fill="#000000" stroke="#000000"></path><path d="M390.9 147.7L388.9 143.1L305.3 179.7Z" fill="#8c0000" stroke="#8c0000"></path><path d="M87.1 229.2L185.7 232.2L144.1 162.7Z" fill="#550000" stroke="#550000"></path><path d="M134.1 299.3L120.1 312.8L175.7 335.3Z" fill="#d93202" stroke="#d93202"></path><path d="M198.2 413.9L274.8 410.9L241.8 372.3Z" fill="#a00000" stroke="#a00000"></path><path d="M287.8 34.6L237.2 69.6L261.2 114.1Z" fill="#ff4c00" stroke="#ff4c00"></path><path d="M261.2 114.1L237.2 69.6L247.8 139.1Z" fill="#ec3f01" stroke="#ec3f01"></path><path d="M68.6 209.2L87.1 229.2L144.1 162.7Z" fill="#a00000" stroke="#a00000"></path><path d="M198.2 413.9L241.8 372.3L175.7 335.3Z" fill="#780000" stroke="#780000"></path><path d="M241.8 372.3L274.8 410.9L315.3 354.3Z" fill="#550000" stroke="#550000"></path><path d="M470.4 262.8L365.9 243.8L356.9 302.3Z" fill="#d93202" stroke="#d93202"></path><path d="M380.9 229.2L441.4 211.2L390.9 147.7Z" fill="#a00000" stroke="#a00000"></path><path d="M390.9 147.7L457.4 107.1L388.9 143.1Z" fill="#ec3f01" stroke="#ec3f01"></path><path d="M470.4 262.8L441.4 211.2L380.9 229.2Z" fill="#8c0000" stroke="#8c0000"></path><path d="M382.9 397.9L356.9 302.3L315.3 354.3Z" fill="#a00000" stroke="#a00000"></path><path d="M237.2 69.6L165.7 73.1L247.8 139.1Z" fill="#780000" stroke="#780000"></path><path d="M66.6 138.7L68.6 209.2L144.1 162.7Z" fill="#b31402" stroke="#b31402"></path><path d="M457.4 107.1L370.3 76.1L388.9 143.1Z" fill="#d93202" stroke="#d93202"></path><path d="M388.9 143.1L370.3 76.1L305.3 179.7Z" fill="#550000" stroke="#550000"></path><path d="M155.7 401.9L198.2 413.9L175.7 335.3Z" fill="#ff4c00" stroke="#ff4c00"></path><path d="M66.6 138.7L144.1 162.7L140.7 150.7Z" fill="#550000" stroke="#550000"></path><path d="M87.1 229.2L70.6 311.3L134.1 299.3Z" fill="#000000" stroke="#000000"></path><path d="M120.1 312.8L155.7 401.9L175.7 335.3Z" fill="#000000" stroke="#000000"></path><path d="M133.1 416.9L155.7 401.9L111.1 406.4Z" fill="#ff4c00" stroke="#ff4c00"></path><path d="M370.3 76.1L287.8 34.6L261.2 114.1Z" fill="#a00000" stroke="#a00000"></path><path d="M237.2 69.6L183.7 33.6L165.7 73.1Z" fill="#c62402" stroke="#c62402"></path><path d="M316.3 480.4L356.3 412.9L274.8 410.9Z" fill="#780000" stroke="#780000"></path><path d="M274.8 410.9L356.3 412.9L315.3 354.3Z" fill="#b31402" stroke="#b31402"></path><path d="M356.3 412.9L382.9 397.9L315.3 354.3Z" fill="#d93202" stroke="#d93202"></path><path d="M16.6 297.8L70.6 311.3L87.1 229.2Z" fill="#c62402" stroke="#c62402"></path><path d="M378.9 21.6L364.3 50.6L370.3 76.1Z" fill="#d93202" stroke="#d93202"></path><path d="M370.3 76.1L364.3 50.6L287.8 34.6Z" fill="#b31402" stroke="#b31402"></path><path d="M453.4 370.3L470.4 262.8L356.9 302.3Z" fill="#d93202" stroke="#d93202"></path><path d="M441.4 211.2L473.4 188.7L390.9 147.7Z" fill="#ec3f01" stroke="#ec3f01"></path><path d="M206.2 0L183.7 33.6L237.2 69.6Z" fill="#b31402" stroke="#b31402"></path><path d="M59.6 124.1L66.6 138.7L74.1 98.1Z" fill="#c62402" stroke="#c62402"></path><path d="M500 199.2L473.4 188.7L441.4 211.2Z" fill="#000000" stroke="#000000"></path><path d="M66.6 138.7L140.7 150.7L74.1 98.1Z" fill="#8c0000" stroke="#8c0000"></path><path d="M0 248.8L16.6 297.8L87.1 229.2Z" fill="#ec3f01" stroke="#ec3f01"></path><path d="M155.7 401.9L174.7 473.4L198.2 413.9Z" fill="#550000" stroke="#550000"></path><path d="M198.2 413.9L215.2 457.4L274.8 410.9Z" fill="#000000" stroke="#000000"></path><path d="M111.1 406.4L155.7 401.9L120.1 312.8Z" fill="#ff4c00" stroke="#ff4c00"></path><path d="M174.7 473.4L215.2 457.4L198.2 413.9Z" fill="#ec3f01" stroke="#ec3f01"></path><path d="M70.6 311.3L111.1 406.4L120.1 312.8Z" fill="#ec3f01" stroke="#ec3f01"></path><path d="M133.1 416.9L174.7 473.4L155.7 401.9Z" fill="#ec3f01" stroke="#ec3f01"></path><path d="M74.1 98.1L140.7 150.7L86.1 71.6Z" fill="#000000" stroke="#000000"></path><path d="M0 196.2L0 248.8L68.6 209.2Z" fill="#b31402" stroke="#b31402"></path><path d="M86.1 71.6L140.7 150.7L165.7 73.1Z" fill="#b31402" stroke="#b31402"></path><path d="M473.4 188.7L457.4 107.1L390.9 147.7Z" fill="#ff4c00" stroke="#ff4c00"></path><path d="M357.3 0L246.8 0L287.8 34.6Z" fill="#550000" stroke="#550000"></path><path d="M287.8 34.6L246.8 0L237.2 69.6Z" fill="#ff4c00" stroke="#ff4c00"></path><path d="M426.4 427.9L453.4 370.3L382.9 397.9Z" fill="#ff4c00" stroke="#ff4c00"></path><path d="M382.9 397.9L453.4 370.3L356.9 302.3Z" fill="#780000" stroke="#780000"></path><path d="M128.1 0L165.7 73.1L183.7 33.6Z" fill="#780000" stroke="#780000"></path><path d="M128.1 0L86.1 71.6L165.7 73.1Z" fill="#660000" stroke="#660000"></path><path d="M0 144.1L66.6 138.7L59.6 124.1Z" fill="#660000" stroke="#660000"></path><path d="M246.8 0L206.2 0L237.2 69.6Z" fill="#000000" stroke="#000000"></path><path d="M206.2 0L203.7 0L183.7 33.6Z" fill="#ec3f01" stroke="#ec3f01"></path><path d="M470.4 262.8L500 199.2L441.4 211.2Z" fill="#550000" stroke="#550000"></path><path d="M473.4 188.7L500 184.7L457.4 107.1Z" fill="#ec3f01" stroke="#ec3f01"></path><path d="M500 273.8L500 199.2L470.4 262.8Z" fill="#d93202" stroke="#d93202"></path><path d="M215.2 457.4L285.8 473.4L274.8 410.9Z" fill="#a00000" stroke="#a00000"></path><path d="M356.3 412.9L380.9 448.4L382.9 397.9Z" fill="#8c0000" stroke="#8c0000"></path><path d="M500 357.3L500 273.8L470.4 262.8Z" fill="#780000" stroke="#780000"></path><path d="M441.4 0L378.9 21.6L370.3 76.1Z" fill="#a00000" stroke="#a00000"></path><path d="M364.3 50.6L357.3 0L287.8 34.6Z" fill="#ff4c00" stroke="#ff4c00"></path><path d="M500 199.2L500 184.7L473.4 188.7Z" fill="#550000" stroke="#550000"></path><path d="M316.3 480.4L380.9 448.4L356.3 412.9Z" fill="#8c0000" stroke="#8c0000"></path><path d="M378.9 21.6L357.3 0L364.3 50.6Z" fill="#d93202" stroke="#d93202"></path><path d="M259.8 500L316.3 480.4L285.8 473.4Z" fill="#a00000" stroke="#a00000"></path><path d="M285.8 473.4L316.3 480.4L274.8 410.9Z" fill="#a00000" stroke="#a00000"></path><path d="M0 248.8L87.1 229.2L68.6 209.2Z" fill="#8c0000" stroke="#8c0000"></path><path d="M70.6 311.3L18.6 367.9L111.1 406.4Z" fill="#660000" stroke="#660000"></path><path d="M427.4 467.4L426.4 427.9L380.9 448.4Z" fill="#ff4c00" stroke="#ff4c00"></path><path d="M380.9 448.4L426.4 427.9L382.9 397.9Z" fill="#b31402" stroke="#b31402"></path><path d="M453.4 370.3L500 357.3L470.4 262.8Z" fill="#8c0000" stroke="#8c0000"></path><path d="M154.7 500L174.7 473.4L133.1 416.9Z" fill="#660000" stroke="#660000"></path><path d="M215.2 457.4L259.8 500L285.8 473.4Z" fill="#780000" stroke="#780000"></path><path d="M0 196.2L68.6 209.2L0 194.7Z" fill="#d93202" stroke="#d93202"></path><path d="M0 194.7L66.6 138.7L0 144.1Z" fill="#8c0000" stroke="#8c0000"></path><path d="M0 194.7L68.6 209.2L66.6 138.7Z" fill="#b31402" stroke="#b31402"></path><path d="M46.6 66.6L59.6 124.1L74.1 98.1Z" fill="#8c0000" stroke="#8c0000"></path><path d="M213.2 500L259.8 500L215.2 457.4Z" fill="#000000" stroke="#000000"></path><path d="M203.7 0L128.1 0L183.7 33.6Z" fill="#550000" stroke="#550000"></path><path d="M86.1 71.6L46.6 66.6L74.1 98.1Z" fill="#c62402" stroke="#c62402"></path><path d="M500 410.4L500 357.3L453.4 370.3Z" fill="#660000" stroke="#660000"></path><path d="M0 248.8L0 301.3L16.6 297.8Z" fill="#660000" stroke="#660000"></path><path d="M16.6 297.8L18.6 367.9L70.6 311.3Z" fill="#c62402" stroke="#c62402"></path><path d="M89.6 500L154.7 500L133.1 416.9Z" fill="#d93202" stroke="#d93202"></path><path d="M174.7 473.4L213.2 500L215.2 457.4Z" fill="#550000" stroke="#550000"></path><path d="M84.6 0L46.6 66.6L86.1 71.6Z" fill="#550000" stroke="#550000"></path><path d="M316.3 480.4L349.9 500L380.9 448.4Z" fill="#b31402" stroke="#b31402"></path><path d="M259.8 500L328.3 500L316.3 480.4Z" fill="#660000" stroke="#660000"></path><path d="M441.4 0L407.9 0L378.9 21.6Z" fill="#d93202" stroke="#d93202"></path><path d="M378.9 21.6L407.9 0L357.3 0Z" fill="#660000" stroke="#660000"></path><path d="M441.4 0L370.3 76.1L457.4 107.1Z" fill="#ec3f01" stroke="#ec3f01"></path><path d="M46.6 66.6L0 144.1L59.6 124.1Z" fill="#b31402" stroke="#b31402"></path><path d="M0 301.3L18.6 367.9L16.6 297.8Z" fill="#8c0000" stroke="#8c0000"></path><path d="M174.7 473.4L154.7 500L213.2 500Z" fill="#ec3f01" stroke="#ec3f01"></path><path d="M328.3 500L349.9 500L316.3 480.4Z" fill="#550000" stroke="#550000"></path><path d="M500 184.7L500 75.1L457.4 107.1Z" fill="#ff4c00" stroke="#ff4c00"></path><path d="M349.9 500L427.4 467.4L380.9 448.4Z" fill="#550000" stroke="#550000"></path><path d="M426.4 427.9L500 410.4L453.4 370.3Z" fill="#8c0000" stroke="#8c0000"></path><path d="M89.6 500L133.1 416.9L111.1 406.4Z" fill="#780000" stroke="#780000"></path><path d="M128.1 0L84.6 0L86.1 71.6Z" fill="#660000" stroke="#660000"></path><path d="M46.6 66.6L0 25.6L0 144.1Z" fill="#660000" stroke="#660000"></path><path d="M480.4 17.6L441.4 0L457.4 107.1Z" fill="#ec3f01" stroke="#ec3f01"></path><path d="M500 417.9L500 410.4L426.4 427.9Z" fill="#a00000" stroke="#a00000"></path><path d="M0 301.3L0 374.9L18.6 367.9Z" fill="#a00000" stroke="#a00000"></path><path d="M18.6 367.9L41.6 460.4L111.1 406.4Z" fill="#660000" stroke="#660000"></path><path d="M427.4 467.4L500 417.9L426.4 427.9Z" fill="#ff4c00" stroke="#ff4c00"></path><path d="M500 75.1L480.4 17.6L457.4 107.1Z" fill="#ff4c00" stroke="#ff4c00"></path><path d="M0 374.9L41.6 460.4L18.6 367.9Z" fill="#a00000" stroke="#a00000"></path><path d="M500 75.1L500 24.6L480.4 17.6Z" fill="#660000" stroke="#660000"></path><path d="M480.4 17.6L500 0L441.4 0Z" fill="#c62402" stroke="#c62402"></path><path d="M41.6 460.4L89.6 500L111.1 406.4Z" fill="#ec3f01" stroke="#ec3f01"></path><path d="M41.6 460.4L75.1 500L89.6 500Z" fill="#c62402" stroke="#c62402"></path><path d="M500 24.6L500 0L480.4 17.6Z" fill="#000000" stroke="#000000"></path><path d="M84.6 0L0 25.6L46.6 66.6Z" fill="#a00000" stroke="#a00000"></path><path d="M349.9 500L473.4 500L427.4 467.4Z" fill="#660000" stroke="#660000"></path><path d="M427.4 467.4L473.4 500L500 417.9Z" fill="#550000" stroke="#550000"></path><path d="M84.6 0L0 0L0 25.6Z" fill="#a00000" stroke="#a00000"></path><path d="M0 374.9L0 469.4L41.6 460.4Z" fill="#780000" stroke="#780000"></path><path d="M41.6 460.4L0 500L75.1 500Z" fill="#550000" stroke="#550000"></path><path d="M473.4 500L500 500L500 417.9Z" fill="#ec3f01" stroke="#ec3f01"></path><path d="M0 469.4L0 500L41.6 460.4Z" fill="#b31402" stroke="#b31402"></path></g></svg>