<svg id="visual" viewBox="0 0 500 500" width="500" height="500" xmlns="http://www.w3.org/2000/svg" xmlns:xlink="http://www.w3.org/1999/xlink" version="1.1"><path d="M0 111L7.5 110.2C15 109.3 30 107.7 45.2 106.8C60.3 106 75.7 106 90.8 99.3C106 92.7 121 79.3 136.2 79.3C151.3 79.3 166.7 92.7 181.8 90.2C197 87.7 212 69.3 227.2 74.3C242.3 79.3 257.7 107.7 272.8 111.8C288 116 303 96 318.2 91.8C333.3 87.7 348.7 99.3 363.8 99.3C379 99.3 394 87.7 409.2 78.5C424.3 69.3 439.7 62.7 454.8 67.7C470 72.7 485 89.3 492.5 97.7L500 106L500 0L492.5 0C485 0 470 0 454.8 0C439.7 0 424.3 0 409.2 0C394 0 379 0 363.8 0C348.7 0 333.3 0 318.2 0C303 0 288 0 272.8 0C257.7 0 242.3 0 227.2 0C212 0 197 0 181.8 0C166.7 0 151.3 0 136.2 0C121 0 106 0 90.8 0C75.7 0 60.3 0 45.2 0C30 0 15 0 7.5 0L0 0Z" fill="#000000"></path><path d="M0 146L7.5 148.5C15 151 30 156 45.2 165.2C60.3 174.3 75.7 187.7 90.8 186.8C106 186 121 171 136.2 165.2C151.3 159.3 166.7 162.7 181.8 159.3C197 156 212 146 227.2 154.3C242.3 162.7 257.7 189.3 272.8 191.8C288 194.3 303 172.7 318.2 163.5C333.3 154.3 348.7 157.7 363.8 155.2C379 152.7 394 144.3 409.2 145.2C424.3 146 439.7 156 454.8 167.7C470 179.3 485 192.7 492.5 199.3L500 206L500 104L492.5 95.7C485 87.3 470 70.7 454.8 65.7C439.7 60.7 424.3 67.3 409.2 76.5C394 85.7 379 97.3 363.8 97.3C348.7 97.3 333.3 85.7 318.2 89.8C303 94 288 114 272.8 109.8C257.7 105.7 242.3 77.3 227.2 72.3C212 67.3 197 85.7 181.8 88.2C166.7 90.7 151.3 77.3 136.2 77.3C121 77.3 106 90.7 90.8 97.3C75.7 104 60.3 104 45.2 104.8C30 105.7 15 107.3 7.5 108.2L0 109Z" fill="#690000"></path><path d="M0 241L7.5 256.8C15 272.7 30 304.3 45.2 314.3C60.3 324.3 75.7 312.7 90.8 316.8C106 321 121 341 136.2 346.8C151.3 352.7 166.7 344.3 181.8 324.3C197 304.3 212 272.7 227.2 266C242.3 259.3 257.7 277.7 272.8 299.3C288 321 303 346 318.2 342.7C333.3 339.3 348.7 307.7 363.8 290.2C379 272.7 394 269.3 409.2 280.2C424.3 291 439.7 316 454.8 322.7C470 329.3 485 317.7 492.5 311.8L500 306L500 204L492.5 197.3C485 190.7 470 177.3 454.8 165.7C439.7 154 424.3 144 409.2 143.2C394 142.3 379 150.7 363.8 153.2C348.7 155.7 333.3 152.3 318.2 161.5C303 170.7 288 192.3 272.8 189.8C257.7 187.3 242.3 160.7 227.2 152.3C212 144 197 154 181.8 157.3C166.7 160.7 151.3 157.3 136.2 163.2C121 169 106 184 90.8 184.8C75.7 185.7 60.3 172.3 45.2 163.2C30 154 15 149 7.5 146.5L0 144Z" fill="#981700"></path><path d="M0 306L7.5 320.2C15 334.3 30 362.7 45.2 374.3C60.3 386 75.7 381 90.8 385.2C106 389.3 121 402.7 136.2 408.5C151.3 414.3 166.7 412.7 181.8 397.7C197 382.7 212 354.3 227.2 340.2C242.3 326 257.7 326 272.8 338.5C288 351 303 376 318.2 375.2C333.3 374.3 348.7 347.7 363.8 330.2C379 312.7 394 304.3 409.2 314.3C424.3 324.3 439.7 352.7 454.8 365.2C470 377.7 485 374.3 492.5 372.7L500 371L500 304L492.5 309.8C485 315.7 470 327.3 454.8 320.7C439.7 314 424.3 289 409.2 278.2C394 267.3 379 270.7 363.8 288.2C348.7 305.7 333.3 337.3 318.2 340.7C303 344 288 319 272.8 297.3C257.7 275.7 242.3 257.3 227.2 264C212 270.7 197 302.3 181.8 322.3C166.7 342.3 151.3 350.7 136.2 344.8C121 339 106 319 90.8 314.8C75.7 310.7 60.3 322.3 45.2 312.3C30 302.3 15 270.7 7.5 254.8L0 239Z" fill="#cc4502"></path><path d="M0 501L7.5 501C15 501 30 501 45.2 501C60.3 501 75.7 501 90.8 501C106 501 121 501 136.2 501C151.3 501 166.7 501 181.8 501C197 501 212 501 227.2 501C242.3 501 257.7 501 272.8 501C288 501 303 501 318.2 501C333.3 501 348.7 501 363.8 501C379 501 394 501 409.2 501C424.3 501 439.7 501 454.8 501C470 501 485 501 492.5 501L500 501L500 369L492.5 370.7C485 372.3 470 375.7 454.8 363.2C439.7 350.7 424.3 322.3 409.2 312.3C394 302.3 379 310.7 363.8 328.2C348.7 345.7 333.3 372.3 318.2 373.2C303 374 288 349 272.8 336.5C257.7 324 242.3 324 227.2 338.2C212 352.3 197 380.7 181.8 395.7C166.7 410.7 151.3 412.3 136.2 406.5C121 400.7 106 387.3 90.8 383.2C75.7 379 60.3 384 45.2 372.3C30 360.7 15 332.3 7.5 318.2L0 304Z" fill="#ff7200"></path></svg>