<svg id="visual" viewBox="0 0 500 500" width="500" height="500" xmlns="http://www.w3.org/2000/svg" xmlns:xlink="http://www.w3.org/1999/xlink" version="1.1"><path d="M0 66L125 96L250 71L375 66L500 71L500 0L375 0L250 0L125 0L0 0Z" fill="#de6300"></path><path d="M0 206L125 226L250 206L375 206L500 211L500 69L375 64L250 69L125 94L0 64Z" fill="#bc4403"></path><path d="M0 256L125 266L250 256L375 251L500 256L500 209L375 204L250 204L125 224L0 204Z" fill="#992602"></path><path d="M0 386L125 381L250 406L375 386L500 386L500 254L375 249L250 254L125 264L0 254Z" fill="#760000"></path><path d="M0 436L125 436L250 446L375 436L500 426L500 384L375 384L250 404L125 379L0 384Z" fill="#570000"></path><path d="M0 501L125 501L250 501L375 501L500 501L500 424L375 434L250 444L125 434L0 434Z" fill="#000000"></path></svg>